<svg xmlns="http://www.w3.org/2000/svg" version="1.1" xmlns:xlink="http://www.w3.org/1999/xlink" width="512" height="512" x="0" y="0" viewBox="0 0 24 24" style="enable-background:new 0 0 512 512" xml:space="preserve"><g><path d="M22.975 12.632c.661-.661 1.025-1.54 1.025-2.475s-.364-1.814-1.025-2.475l-5.656-5.657a3.504 3.504 0 0 0-4.95 0L1.055 13.339a3.504 3.504 0 0 0 0 4.95L5.767 23H24v-3h-8.394l7.368-7.368Zm-8.486-8.486a.502.502 0 0 1 .708 0l5.656 5.657a.503.503 0 0 1 0 .707l-4.861 4.861-6.364-6.364 4.861-4.861ZM7.009 20l-3.833-3.833a.502.502 0 0 1 0-.708l4.332-4.332 6.364 6.364-2.507 2.507H7.01Z" fill="white" opacity="1" data-original="#000000"></path></g></svg>