<svg id="a" height="64" viewBox="0 0 64 64" width="64" xmlns="http://www.w3.org/2000/svg" data-name="LINE EXPAND"><path d="m46.62 59.99h-29.25c-1.847 0-3.35-1.503-3.35-3.351v-11c0-.553.448-1 1-1s1 .447 1 1v11c0 .745.605 1.351 1.35 1.351h29.25c.745 0 1.35-.605 1.35-1.351v-11c0-.553.448-1 1-1s1 .447 1 1v11c0 1.848-1.503 3.351-3.35 3.351z"/><path d="m49.266 46.636h-6.776c-.552 0-1-.447-1-1s.448-1 1-1h6.776c1.129 0 2.048-.919 2.048-2.049v-34.539c0-1.129-.919-2.048-2.048-2.048h-34.539c-1.129 0-2.048.919-2.048 2.048v34.539c0 1.13.919 2.049 2.048 2.049h6.776c.552 0 1 .447 1 1s-.448 1-1 1h-6.776c-2.232 0-4.048-1.816-4.048-4.049v-34.539c0-2.232 1.816-4.048 4.048-4.048h34.539c2.232 0 4.048 1.815 4.048 4.048v34.539c0 2.232-1.816 4.049-4.048 4.049z"/><g><path d="m46.312 30.396h-28.631c-.552 0-1-.447-1-1v-19.203c0-.553.448-1 1-1h28.631c.552 0 1 .447 1 1v19.202c0 .553-.448 1-1 1zm-27.631-2h26.631v-17.203h-26.631v17.202z"/><path d="m31.229 24.955c-.203 0-.407-.062-.583-.188-.448-.323-.55-.948-.227-1.396l2.062-2.861h-2.923c-.385 0-.736-.222-.902-.569s-.118-.76.125-1.06l3.135-3.875c.347-.429.978-.495 1.406-.148.429.348.496.977.148 1.406l-1.817 2.246h2.781c.375 0 .719.21.89.544.171.335.141.736-.079 1.041l-3.205 4.446c-.195.271-.501.415-.812.415z"/><g><g><path d="m23.003 14.75h-1.5c-.552 0-1-.447-1-1s.448-1 1-1h1.5c.552 0 1 .447 1 1s-.448 1-1 1z"/><path d="m42.49 14.75h-1.5c-.552 0-1-.447-1-1s.448-1 1-1h1.5c.552 0 1 .447 1 1s-.448 1-1 1z"/></g><g><path d="m23.003 26.839h-1.5c-.552 0-1-.447-1-1s.448-1 1-1h1.5c.552 0 1 .447 1 1s-.448 1-1 1z"/><path d="m42.49 26.839h-1.5c-.552 0-1-.447-1-1s.448-1 1-1h1.5c.552 0 1 .447 1 1s-.448 1-1 1z"/></g></g></g><g><path d="m44.337 41.956h-24.681c-1.641 0-2.975-1.334-2.975-2.975v-2.768c0-1.641 1.334-2.975 2.975-2.975h24.681c1.641 0 2.975 1.334 2.975 2.975v2.768c0 1.641-1.334 2.975-2.975 2.975zm-24.681-6.717c-.538 0-.975.438-.975.975v2.768c0 .537.438.975.975.975h24.681c.538 0 .975-.438.975-.975v-2.768c0-.537-.438-.975-.975-.975z"/><g><path d="m42.4 41.96c-.552 0-1-.447-1-1v-6.72c0-.553.448-1 1-1s1 .447 1 1v6.72c0 .553-.448 1-1 1z"/><path d="m35.47 41.96c-.552 0-1-.447-1-1v-6.72c0-.553.448-1 1-1s1 .447 1 1v6.72c0 .553-.448 1-1 1z"/><path d="m28.53 41.96c-.552 0-1-.447-1-1v-6.72c0-.553.448-1 1-1s1 .447 1 1v6.72c0 .553-.448 1-1 1z"/><path d="m21.6 41.96c-.552 0-1-.447-1-1v-6.72c0-.553.448-1 1-1s1 .447 1 1v6.72c0 .553-.448 1-1 1z"/></g></g><path d="m11.679 30.396h-6.679c-.552 0-1-.447-1-1v-19.203c0-.553.448-1 1-1h6.679c.552 0 1 .447 1 1s-.448 1-1 1h-5.679v17.202h5.679c.552 0 1 .447 1 1s-.448 1-1 1z"/><path d="m58.993 30.396h-6.679c-.552 0-1-.447-1-1s.448-1 1-1h5.679v-17.203h-5.679c-.552 0-1-.447-1-1s.448-1 1-1h6.679c.552 0 1 .447 1 1v19.202c0 .553-.448 1-1 1z"/><path d="m42.49 54h-20.987c-.552 0-1-.447-1-1v-7.364c0-.553.448-1 1-1h20.987c.552 0 1 .447 1 1v7.364c0 .553-.448 1-1 1zm-19.987-2h18.987v-5.364h-18.987z"/></svg>