<svg width="24" height="24" viewBox="0 0 24 24" fill="none" xmlns="http://www.w3.org/2000/svg">
  <path d="M16 4C16 6.20914 14.2091 8 12 8C9.79086 8 8 6.20914 8 4C8 1.79086 9.79086 0 12 0C14.2091 0 16 1.79086 16 4Z" fill="currentColor"/>
  <path d="M24 20C24 16.6863 20.4183 14 16 14H8C3.58172 14 0 16.6863 0 20V24H24V20Z" fill="currentColor"/>
  <path d="M8 6C8 8.20914 6.20914 10 4 10C1.79086 10 0 8.20914 0 6C0 3.79086 1.79086 2 4 2C6.20914 2 8 3.79086 8 6Z" fill="currentColor"/>
  <path d="M16 6C16 8.20914 17.7909 10 20 10C22.2091 10 24 8.20914 24 6C24 3.79086 22.2091 2 20 2C17.7909 2 16 3.79086 16 6Z" fill="currentColor"/>
</svg> 